<?xml version="1.0" encoding="UTF-8" standalone="no"?>
<svg
   xmlns:dc="http://purl.org/dc/elements/1.1/"
   xmlns:cc="http://creativecommons.org/ns#"
   xmlns:rdf="http://www.w3.org/1999/02/22-rdf-syntax-ns#"
   xmlns:svg="http://www.w3.org/2000/svg"
   xmlns="http://www.w3.org/2000/svg"
   xmlns:sodipodi="http://sodipodi.sourceforge.net/DTD/sodipodi-0.dtd"
   xmlns:inkscape="http://www.inkscape.org/namespaces/inkscape"
   version="1.1"
   id="svg2"
   xml:space="preserve"
   width="800"
   height="800"
   viewBox="0 0 800 800"
   sodipodi:docname="Logo.svg"
   inkscape:version="1.0.1 (3bc2e813f5, 2020-09-07)"
   inkscape:export-filename="/home/coner/Desktop/Logo.png"
   inkscape:export-xdpi="30.719999"
   inkscape:export-ydpi="30.719999"><metadata
     id="metadata8"><rdf:RDF><cc:Work
         rdf:about=""><dc:format>image/svg+xml</dc:format><dc:type
           rdf:resource="http://purl.org/dc/dcmitype/StillImage" /><dc:title /></cc:Work></rdf:RDF></metadata><defs
     id="defs6"><clipPath
       clipPathUnits="userSpaceOnUse"
       id="clipPath18"><path
         d="M 0,150 H 150 V 0 H 0 Z"
         id="path16"
         inkscape:connector-curvature="0" /></clipPath></defs><sodipodi:namedview
     pagecolor="#ffffff"
     bordercolor="#666666"
     borderopacity="1"
     objecttolerance="10"
     gridtolerance="10"
     guidetolerance="10"
     inkscape:pageopacity="0"
     inkscape:pageshadow="2"
     inkscape:window-width="1920"
     inkscape:window-height="1016"
     id="namedview4"
     showgrid="false"
     inkscape:zoom="0.59"
     inkscape:cx="257.32649"
     inkscape:cy="366.27569"
     inkscape:window-x="0"
     inkscape:window-y="27"
     inkscape:window-maximized="1"
     inkscape:current-layer="g10"
     showguides="false"
     inkscape:document-rotation="0" /><g
     id="g10"
     inkscape:groupmode="layer"
     inkscape:label="CM Logo 2019 (1)"
     transform="matrix(1.3333333,0,0,-1.3333333,0,800)"
     style="display:inline"><rect
       style="fill:#ffffff;fill-opacity:1;stroke:none;stroke-width:5.19964;stroke-linecap:round;stroke-linejoin:bevel;stroke-opacity:1"
       id="rect833"
       width="525"
       height="525"
       x="37.500008"
       y="-562.5"
       transform="scale(1,-1)"
       rx="53.421719"
       ry="77.958954" /><path
       style="opacity:1;fill:#2e2e2e;fill-opacity:1;stroke:none;stroke-width:33.007;stroke-miterlimit:4;stroke-dasharray:none;stroke-opacity:1"
       d="m 187.52675,410.43358 c -60.89541,0 -110.435591,-49.53981 -110.435591,-110.43164 0,-60.89185 49.540181,-110.43551 110.435591,-110.43551 30.11731,0 58.25869,11.90412 79.24258,33.52402 l -25.34709,24.6057 c -14.27426,-14.69827 -33.41332,-22.79675 -53.89549,-22.79675 -41.4131,0 -75.10252,33.68943 -75.10252,75.10254 0,41.40955 33.68942,75.09868 75.10252,75.09868 17.25633,0 30.52667,-2.38792 44.36988,-7.99518 15.30957,-6.20436 29.8485,-16.12605 43.21468,-29.49228 l 77.30733,-77.30085 c 19.82148,-19.83207 52.07287,-19.825 71.89081,0 l 0.77361,0.77102 62.49284,80.24313 V 200.93322 h 35.33296 v 167.68333 c 0,11.08729 -7.0454,20.95244 -17.52852,24.55282 -10.50079,3.61451 -22.10449,0.14136 -28.90951,-8.59987 l -77.7908,-99.88745 c -6.08424,-5.43061 -15.44488,-5.22222 -21.28178,0.61115 l -77.30348,77.30344 c -16.7263,16.73342 -35.2122,29.26894 -54.93474,37.25407 -18.07252,7.32088 -35.84382,10.58287 -57.63328,10.58287 z"
       id="rect872"
       inkscape:connector-curvature="0" /></g></svg>
