<?xml version="1.0" encoding="UTF-8" standalone="no"?>
<!-- Created with Inkscape (http://www.inkscape.org/) -->

<svg
   xmlns:dc="http://purl.org/dc/elements/1.1/"
   xmlns:cc="http://creativecommons.org/ns#"
   xmlns:rdf="http://www.w3.org/1999/02/22-rdf-syntax-ns#"
   xmlns:svg="http://www.w3.org/2000/svg"
   xmlns="http://www.w3.org/2000/svg"
   xmlns:sodipodi="http://sodipodi.sourceforge.net/DTD/sodipodi-0.dtd"
   xmlns:inkscape="http://www.inkscape.org/namespaces/inkscape"
   version="1.1"
   id="svg2"
   xml:space="preserve"
   width="800"
   height="800"
   viewBox="0 0 800 800"
   sodipodi:docname="CM Logo 2019.svg"
   inkscape:version="0.92.4 (5da689c313, 2019-01-14)"><metadata
     id="metadata8"><rdf:RDF><cc:Work
         rdf:about=""><dc:format>image/svg+xml</dc:format><dc:type
           rdf:resource="http://purl.org/dc/dcmitype/StillImage" /><dc:title /></cc:Work></rdf:RDF></metadata><defs
     id="defs6"><clipPath
       clipPathUnits="userSpaceOnUse"
       id="clipPath18"><path
         d="M 0,150 H 150 V 0 H 0 Z"
         id="path16"
         inkscape:connector-curvature="0" /></clipPath></defs><sodipodi:namedview
     pagecolor="#ffffff"
     bordercolor="#666666"
     borderopacity="1"
     objecttolerance="10"
     gridtolerance="10"
     guidetolerance="10"
     inkscape:pageopacity="0"
     inkscape:pageshadow="2"
     inkscape:window-width="1920"
     inkscape:window-height="1016"
     id="namedview4"
     showgrid="false"
     inkscape:zoom="0.834386"
     inkscape:cx="106.09017"
     inkscape:cy="448.66667"
     inkscape:window-x="1920"
     inkscape:window-y="27"
     inkscape:window-maximized="1"
     inkscape:current-layer="g12" /><g
     id="g10"
     inkscape:groupmode="layer"
     inkscape:label="CM Logo 2019 (1)"
     transform="matrix(1.3333333,0,0,-1.3333333,0,800)"><g
       id="g12"
       style="fill:#c83737"><g
         id="g14"
         clip-path="url(#clipPath18)"
         style="fill:#ffffff;fill-opacity:1;stroke-width:0.24911611"
         transform="matrix(4.0141926,0,0,4.0141926,0,-2.6965937)"><g
           id="g20"
           transform="translate(138.0889,47.8525)"
           style="fill:#ffffff;fill-opacity:1;stroke-width:0.24911611"><path
             d="m 0,0 h -10 v 39.735 l -17.687,-22.711 -0.219,-0.218 c -5.609,-5.611 -14.737,-5.613 -20.347,0 l -21.88,21.878 c -3.783,3.783 -7.898,6.591 -12.231,8.347 -3.918,1.587 -7.674,2.263 -12.558,2.263 -11.721,0 -21.256,-9.535 -21.256,-21.255 0,-11.721 9.535,-21.256 21.256,-21.256 5.797,0 11.214,2.292 15.254,6.452 l 7.174,-6.964 c -5.939,-6.119 -13.904,-9.488 -22.428,-9.488 -17.235,0 -31.256,14.022 -31.256,31.256 0,17.234 14.021,31.255 31.256,31.255 6.167,0 11.197,-0.923 16.312,-2.995 5.582,-2.26 10.814,-5.808 15.548,-10.544 l 21.879,-21.879 c 1.652,-1.651 4.301,-1.71 6.023,-0.173 l 22.017,28.271 c 1.926,2.474 5.21,3.457 8.182,2.434 C -1.994,53.389 0,50.597 0,47.459 Z M -140.401,-50.165 H 14.224 V 104.46 h -154.625 z"
             style="fill:#ffffff;fill-opacity:1;fill-rule:nonzero;stroke:none;stroke-width:0.24911611"
             id="path22"
             inkscape:connector-curvature="0" /></g></g></g></g></svg>