<?xml version="1.0" encoding="UTF-8" standalone="no"?>
<!-- Created with Inkscape (http://www.inkscape.org/) -->

<svg
   xmlns:dc="http://purl.org/dc/elements/1.1/"
   xmlns:cc="http://creativecommons.org/ns#"
   xmlns:rdf="http://www.w3.org/1999/02/22-rdf-syntax-ns#"
   xmlns:svg="http://www.w3.org/2000/svg"
   xmlns="http://www.w3.org/2000/svg"
   xmlns:sodipodi="http://sodipodi.sourceforge.net/DTD/sodipodi-0.dtd"
   xmlns:inkscape="http://www.inkscape.org/namespaces/inkscape"
   version="1.1"
   id="svg2"
   xml:space="preserve"
   width="800"
   height="800"
   viewBox="0 0 800 800"
   sodipodi:docname="CM Logo 2019.svg"
   inkscape:version="0.92.4 (5da689c313, 2019-01-14)"
   inkscape:export-filename="/home/coner/Documents/Projects/001-personal/001 - conermurphy/002 - Logos/CM-Logo-2020.png"
   inkscape:export-xdpi="96"
   inkscape:export-ydpi="96"><metadata
     id="metadata8"><rdf:RDF><cc:Work
         rdf:about=""><dc:format>image/svg+xml</dc:format><dc:type
           rdf:resource="http://purl.org/dc/dcmitype/StillImage" /><dc:title /></cc:Work></rdf:RDF></metadata><defs
     id="defs6"><clipPath
       clipPathUnits="userSpaceOnUse"
       id="clipPath18"><path
         d="M 0,150 H 150 V 0 H 0 Z"
         id="path16"
         inkscape:connector-curvature="0" /></clipPath></defs><sodipodi:namedview
     pagecolor="#ffffff"
     bordercolor="#666666"
     borderopacity="1"
     objecttolerance="10"
     gridtolerance="10"
     guidetolerance="10"
     inkscape:pageopacity="0"
     inkscape:pageshadow="2"
     inkscape:window-width="1920"
     inkscape:window-height="1016"
     id="namedview4"
     showgrid="false"
     inkscape:zoom="0.59"
     inkscape:cx="503.21944"
     inkscape:cy="355.93135"
     inkscape:window-x="1920"
     inkscape:window-y="27"
     inkscape:window-maximized="1"
     inkscape:current-layer="g10"
     showguides="false" /><g
     id="g10"
     inkscape:groupmode="layer"
     inkscape:label="CM Logo 2019 (1)"
     transform="matrix(1.3333333,0,0,-1.3333333,0,800)"
     style="display:inline"><path
       style="opacity:1;fill:#000000;fill-opacity:1;stroke:none;stroke-width:37.5;stroke-miterlimit:4;stroke-dasharray:none;stroke-opacity:1"
       d="m 172.21662,425.46608 c -69.18466,0 -125.468362,-56.2833 -125.468362,-125.46388 0,-69.18059 56.283702,-125.46826 125.468362,-125.46826 34.21695,0 66.18901,13.52454 90.02926,38.0874 l -28.79738,27.95508 c -16.21732,-16.69904 -37.96163,-25.8999 -61.23188,-25.8999 -47.05036,0 -85.325662,38.27532 -85.325662,85.32568 0,47.04633 38.275302,85.3213 85.325662,85.3213 19.6053,0 34.68203,-2.71297 50.40961,-9.0835 17.39355,-7.04892 33.91155,-18.32117 49.09717,-33.50684 l 87.8306,-87.82324 c 22.51962,-22.53165 59.16116,-22.52362 81.67676,0 l 0.87891,0.87598 70.99951,91.16601 v -159.5039 h 40.14258 V 377.9568 c 0,12.59652 -8.00443,23.80455 -19.91455,27.89502 -11.93018,4.10652 -25.1134,0.1606 -32.84473,-9.77051 L 412.11259,282.59693 c -6.91243,-6.16983 -17.54727,-5.93308 -24.17871,0.69434 l -87.8262,87.82618 c -19.00313,19.01121 -40.00538,33.2531 -62.4126,42.32519 -20.5326,8.31741 -40.72298,12.02344 -65.47846,12.02344 z"
       id="rect872"
       inkscape:connector-curvature="0" /><path
       inkscape:connector-curvature="0"
       id="path22"
       style="fill:#000000;fill-opacity:1;fill-rule:nonzero;stroke:none;stroke-width:1"
       d="m 1288.2035,179.79077 h -40.1419 v 159.50394 l -70.999,-91.16633 -0.8791,-0.87509 c -22.5156,-22.52363 -59.1572,-22.53166 -81.6768,0 l -87.8306,87.82251 c -15.18564,15.18569 -31.70404,26.45754 -49.09754,33.50646 -15.72761,6.37053 -30.80491,9.08412 -50.41023,9.08412 -47.05035,0 -85.32568,-38.27533 -85.32568,-85.32166 0,-47.05036 38.27533,-85.32568 85.32568,-85.32568 23.27027,0 45.01516,9.20053 61.23249,25.89957 l 28.79782,-27.95484 c -23.84029,-24.56284 -55.81333,-38.08666 -90.03031,-38.08666 -69.18461,0 -125.4676,56.28701 -125.4676,125.46761 0,69.18059 56.28299,125.46359 125.4676,125.46359 24.75553,0 44.94691,-3.7051 65.47951,-12.02251 22.40722,-9.07208 43.40946,-23.31443 62.41266,-42.32565 l 87.8265,-87.82652 c 6.6315,-6.62743 17.2651,-6.86427 24.1775,-0.69445 l 88.3805,113.48524 c 7.7313,9.93111 20.9139,13.87706 32.8441,9.77054 11.9101,-4.09046 19.9144,-15.29809 19.9144,-27.89462 z M 724.60687,-21.581204 H 1345.3014 V 599.11333 H 724.60687 Z" /></g></svg>