<svg width="609" height="477" viewBox="0 0 609 477" fill="none" xmlns="http://www.w3.org/2000/svg">
<path fill-rule="evenodd" clip-rule="evenodd" d="M178.684 173.603L340.446 266.996L339.863 268.007L426.354 318.2L427.049 316.996L477.049 230.394L390.446 180.394L228.684 87L142.081 37L92.0814 123.603L50 196.49L-1.52588e-05 283.092L86.6025 333.092L248.365 426.486L334.968 476.486L384.968 389.883L393.354 375.358L306.863 325.165L298.365 339.883L136.603 246.49L178.684 173.603Z" fill="#222225" fill-opacity="0.8"/>
<mask id="path-2-inside-1_1305_293" fill="white">
<path fill-rule="evenodd" clip-rule="evenodd" d="M318.483 138.796L471.894 227.368L429.813 300.255L272.603 209.49L272.603 209.489L186.001 159.489L186 159.49L136 246.092L222.603 296.092L379.813 386.858L466.416 436.858L516.416 350.255L558.497 277.368L608.497 190.766L521.894 140.766L364.684 50L278.081 0L228.105 86.5614L318.506 138.755L318.483 138.796Z"/>
</mask>
<path d="M471.894 227.368L493.545 239.868L506.045 218.217L484.394 205.717L471.894 227.368ZM318.483 138.796L296.83 126.299L284.335 147.948L305.983 160.446L318.483 138.796ZM429.813 300.255L417.313 321.906L438.964 334.406L451.464 312.755L429.813 300.255ZM272.603 209.49L250.942 197.007L238.469 218.65L260.103 231.14L272.603 209.49ZM272.603 209.489L294.264 221.971L306.736 200.328L285.103 187.838L272.603 209.489ZM186.001 159.489L198.501 137.838L176.923 125.381L164.393 146.915L186.001 159.489ZM186 159.49L164.392 146.916L164.371 146.953L164.349 146.99L186 159.49ZM136 246.092L114.349 233.592L101.849 255.243L123.5 267.743L136 246.092ZM222.603 296.092L210.103 317.743L222.603 296.092ZM379.813 386.858L392.313 365.207H392.313L379.813 386.858ZM466.416 436.858L453.916 458.508L475.566 471.008L488.066 449.358L466.416 436.858ZM516.416 350.255L494.765 337.755L516.416 350.255ZM558.497 277.368L580.148 289.868L558.497 277.368ZM608.497 190.766L630.148 203.266L642.648 181.615L620.997 169.115L608.497 190.766ZM521.894 140.766L534.394 119.115L521.894 140.766ZM364.684 50L352.184 71.6506L364.684 50ZM278.081 0L290.581 -21.6506L268.931 -34.1506L256.431 -12.5L278.081 0ZM228.105 86.5614L206.455 74.0614L193.955 95.712L215.605 108.212L228.105 86.5614ZM318.506 138.755L340.159 151.251L352.654 129.602L331.006 117.104L318.506 138.755ZM484.394 205.717L330.983 117.145L305.983 160.446L459.394 249.019L484.394 205.717ZM451.464 312.755L493.545 239.868L450.244 214.868L408.162 287.755L451.464 312.755ZM260.103 231.14L417.313 321.906L442.313 278.605L285.103 187.839L260.103 231.14ZM250.942 197.006L250.942 197.007L294.263 221.972L294.264 221.971L250.942 197.006ZM285.103 187.838L198.501 137.838L173.501 181.139L260.103 231.139L285.103 187.838ZM164.393 146.915L164.392 146.916L207.608 172.063L207.608 172.062L164.393 146.915ZM164.349 146.99L114.349 233.592L157.651 258.592L207.651 171.99L164.349 146.99ZM123.5 267.743L210.103 317.743L235.103 274.442L148.5 224.442L123.5 267.743ZM210.103 317.743L367.313 408.508L392.313 365.207L235.103 274.442L210.103 317.743ZM367.313 408.508L453.916 458.508L478.916 415.207L392.313 365.207L367.313 408.508ZM488.066 449.358L538.066 362.755L494.765 337.755L444.765 424.358L488.066 449.358ZM538.066 362.755L580.148 289.868L536.846 264.868L494.765 337.755L538.066 362.755ZM580.148 289.868L630.148 203.266L586.846 178.266L536.846 264.868L580.148 289.868ZM620.997 169.115L534.394 119.115L509.394 162.416L595.997 212.416L620.997 169.115ZM534.394 119.115L377.184 28.3494L352.184 71.6506L509.394 162.416L534.394 119.115ZM377.184 28.3494L290.581 -21.6506L265.581 21.6506L352.184 71.6506L377.184 28.3494ZM256.431 -12.5L206.455 74.0614L249.756 99.0614L299.732 12.5L256.431 -12.5ZM215.605 108.212L306.006 160.405L331.006 117.104L240.605 64.9108L215.605 108.212ZM296.854 126.258L296.83 126.299L340.135 151.292L340.159 151.251L296.854 126.258Z" fill="#F95738" mask="url(#path-2-inside-1_1305_293)"/>
</svg>
