<?xml version="1.0" encoding="UTF-8" standalone="no"?>
<svg
   xmlns:dc="http://purl.org/dc/elements/1.1/"
   xmlns:cc="http://creativecommons.org/ns#"
   xmlns:rdf="http://www.w3.org/1999/02/22-rdf-syntax-ns#"
   xmlns:svg="http://www.w3.org/2000/svg"
   xmlns="http://www.w3.org/2000/svg"
   xmlns:sodipodi="http://sodipodi.sourceforge.net/DTD/sodipodi-0.dtd"
   xmlns:inkscape="http://www.inkscape.org/namespaces/inkscape"
   version="1.1"
   id="svg2"
   xml:space="preserve"
   width="256"
   height="256"
   viewBox="0 0 256 256"
   sodipodi:docname="CM-Favicon.svg"
   inkscape:version="1.0.1 (3bc2e813f5, 2020-09-07)"
   inkscape:export-filename="/home/coner/Documents/Projects/001-personal/001-conermurphy/001-Website/static/CM-Favicon.png"
   inkscape:export-xdpi="30.719999"
   inkscape:export-ydpi="30.719999"><metadata
     id="metadata8"><rdf:RDF><cc:Work
         rdf:about=""><dc:format>image/svg+xml</dc:format><dc:type
           rdf:resource="http://purl.org/dc/dcmitype/StillImage" /><dc:title /></cc:Work></rdf:RDF></metadata><defs
     id="defs6"><clipPath
       clipPathUnits="userSpaceOnUse"
       id="clipPath18"><path
         d="M 0,150 H 150 V 0 H 0 Z"
         id="path16"
         inkscape:connector-curvature="0" /></clipPath></defs><sodipodi:namedview
     pagecolor="#ffffff"
     bordercolor="#666666"
     borderopacity="1"
     objecttolerance="10"
     gridtolerance="10"
     guidetolerance="10"
     inkscape:pageopacity="0"
     inkscape:pageshadow="2"
     inkscape:window-width="1920"
     inkscape:window-height="1016"
     id="namedview4"
     showgrid="false"
     inkscape:zoom="0.59"
     inkscape:cx="390.033"
     inkscape:cy="355.93135"
     inkscape:window-x="0"
     inkscape:window-y="27"
     inkscape:window-maximized="1"
     inkscape:current-layer="g10"
     showguides="false"
     inkscape:document-rotation="0" /><g
     id="g10"
     inkscape:groupmode="layer"
     inkscape:label="CM Logo 2019 (1)"
     transform="matrix(1.3333333,0,0,-1.3333333,0,800)"
     style="display:inline"><rect
       style="display:inline;opacity:1;vector-effect:none;fill:#ffffff;fill-opacity:1;stroke:none;stroke-width:5.32727;stroke-linecap:round;stroke-linejoin:bevel;stroke-miterlimit:4;stroke-dasharray:none;stroke-dashoffset:0;stroke-opacity:1"
       id="rect836"
       width="180"
       height="180"
       x="6.0000024"
       y="-594"
       rx="13.587816"
       ry="13.587816"
       transform="scale(1,-1)" /><path
       style="opacity:1;fill:#000000;fill-opacity:1;stroke:none;stroke-width:12;stroke-miterlimit:4;stroke-dasharray:none;stroke-opacity:1"
       d="m 55.109314,544.14915 c -22.139092,0 -40.149878,-18.01065 -40.149878,-40.14844 0,-22.13779 18.010786,-40.14984 40.149878,-40.14984 10.949425,0 21.180484,4.32784 28.809362,12.18796 l -9.215159,8.94563 c -5.189542,-5.34369 -12.147722,-8.28797 -19.594203,-8.28797 -15.056115,0 -27.304213,12.2481 -27.304213,27.30422 0,15.05483 12.248098,27.30281 27.304213,27.30281 6.273697,0 11.098251,-0.86814 16.131076,-2.90672 5.565937,-2.25565 10.851698,-5.86276 15.711098,-10.72218 l 28.105802,-28.10344 c 7.20628,-7.21013 18.93157,-7.20756 26.13656,0 l 0.28125,0.28031 22.71984,29.17313 v -51.04125 h 12.84563 v 60.96281 c 0,4.03088 -2.56142,7.61746 -6.37266,8.92641 -3.81766,1.31409 -8.03628,0.0514 -10.51031,-3.12657 l -28.28156,-36.315 c -2.21198,-1.97434 -5.61513,-1.89858 -7.73719,0.22219 l -28.104393,28.10438 c -6.081,6.08358 -12.801722,10.641 -19.972034,13.54406 -6.570433,2.66157 -13.031355,3.8475 -20.953109,3.8475 z"
       id="rect872"
       inkscape:connector-curvature="0" /><path
       inkscape:connector-curvature="0"
       id="path22"
       style="fill:#000000;fill-opacity:1;fill-rule:nonzero;stroke:none;stroke-width:1"
       d="m 1288.2035,179.79077 h -40.1419 v 159.50394 l -70.999,-91.16633 -0.8791,-0.87509 c -22.5156,-22.52363 -59.1572,-22.53166 -81.6768,0 l -87.8306,87.82251 c -15.18564,15.18569 -31.70404,26.45754 -49.09754,33.50646 -15.72761,6.37053 -30.80491,9.08412 -50.41023,9.08412 -47.05035,0 -85.32568,-38.27533 -85.32568,-85.32166 0,-47.05036 38.27533,-85.32568 85.32568,-85.32568 23.27027,0 45.01516,9.20053 61.23249,25.89957 l 28.79782,-27.95484 c -23.84029,-24.56284 -55.81333,-38.08666 -90.03031,-38.08666 -69.18461,0 -125.4676,56.28701 -125.4676,125.46761 0,69.18059 56.28299,125.46359 125.4676,125.46359 24.75553,0 44.94691,-3.7051 65.47951,-12.02251 22.40722,-9.07208 43.40946,-23.31443 62.41266,-42.32565 l 87.8265,-87.82652 c 6.6315,-6.62743 17.2651,-6.86427 24.1775,-0.69445 l 88.3805,113.48524 c 7.7313,9.93111 20.9139,13.87706 32.8441,9.77054 11.9101,-4.09046 19.9144,-15.29809 19.9144,-27.89462 z M 724.60687,-21.581204 H 1345.3014 V 599.11333 H 724.60687 Z" /></g></svg>
